<?xml version="1.0" encoding="utf-8"?>
<!-- Generator: Adobe Illustrator 23.0.6, SVG Export Plug-In . SVG Version: 6.00 Build 0)  -->
<svg version="1.1" id="Layer_1" xmlns="http://www.w3.org/2000/svg" xmlns:xlink="http://www.w3.org/1999/xlink" x="0px" y="0px"
	 viewBox="0 0 19 19" style="enable-background:new 0 0 19 19;" xml:space="preserve">
<style type="text/css">
	.st0{fill:none;stroke:#FF35F0;}
	.st1{fill:#FF35F0;stroke:#FF35F0;stroke-miterlimit:10;}
</style>
<title>2</title>
<g id="jumpforward">
	<path class="st0" d="M9.5,3.4c-4.4,0-8,3.3-8,7.4c0,0,0,0,0,0l0,0"/>
	<path class="st1" d="M11.6,3.4l-4.2,2v-4L11.6,3.4z"/>
	<path class="st1" d="M14.3,3.4l-4.2,2v-4L14.3,3.4z"/>
	<path class="st0" d="M1.6,10.5c0,4.1,3.5,7.5,7.9,7.5c0,0,0,0,0,0l0,0"/>
	<path class="st0" d="M9.1,18c4.4,0,8-3.3,8-7.4c0,0,0,0,0,0l0,0"/>
</g>
</svg>
