<?xml version="1.0" encoding="utf-8"?>
<!-- Generator: Adobe Illustrator 23.0.6, SVG Export Plug-In . SVG Version: 6.00 Build 0)  -->
<svg version="1.1" id="Layer_1" xmlns="http://www.w3.org/2000/svg" xmlns:xlink="http://www.w3.org/1999/xlink" x="0px" y="0px"
	 viewBox="0 0 17 17" style="enable-background:new 0 0 17 17;" xml:space="preserve">
<style type="text/css">
	.st0{fill:#FF35F0;}
</style>
<title>3</title>
<g id="settings">
	<path class="st0" d="M16.9,8.5c0-0.6-0.4-1.1-1-1.2l-1.8-0.5c-0.4-0.1-0.6-0.4-0.6-0.8c0-0.1,0.1-0.2,0.1-0.3l1-1.6
		c0.3-0.5,0.2-1.2-0.2-1.6l0,0c-0.4-0.4-1.1-0.5-1.6-0.2l-1.6,1c-0.3,0.2-0.7,0.2-0.9-0.1c0,0,0,0,0-0.1c-0.1-0.1-0.1-0.2-0.1-0.3
		L9.7,1C9.6,0.4,9.1,0,8.5,0l0,0C8,0,7.4,0.4,7.4,1L6.9,2.8C6.8,3.2,6.4,3.4,6.1,3.4C6,3.4,5.9,3.3,5.8,3.3l-1.6-1
		C3.7,2,3,2.1,2.6,2.5l0,0C2.2,2.9,2.1,3.6,2.4,4.1l1,1.6C3.6,6,3.5,6.4,3.2,6.6c0,0,0,0-0.1,0C3.1,6.7,3,6.8,2.9,6.8L1.1,7.3
		c-0.5,0.1-0.9,0.6-1,1.2l0,0c0,0.6,0.4,1.1,1,1.2l1.8,0.5c0.4,0.1,0.6,0.4,0.6,0.8c0,0.1-0.1,0.2-0.1,0.3l-1,1.6
		c-0.3,0.5-0.2,1.2,0.2,1.6l0,0c0.4,0.4,1.1,0.5,1.6,0.2l1.6-1c0.3-0.2,0.7-0.2,0.9,0.1c0,0,0,0,0,0.1c0.1,0.1,0.1,0.2,0.1,0.3
		L7.4,16C7.5,16.6,8,17,8.5,17l0,0c0.6,0,1.1-0.4,1.2-1l0.5-1.9c0.1-0.4,0.4-0.6,0.8-0.6c0.1,0,0.2,0.1,0.3,0.1l1.6,1
		c0.5,0.3,1.2,0.2,1.6-0.2l0,0c0.4-0.4,0.5-1.1,0.2-1.6l-1-1.6c-0.2-0.3-0.2-0.7,0.1-0.9c0,0,0,0,0.1,0c0.1-0.1,0.2-0.1,0.3-0.1
		L16,9.6C16.5,9.6,16.9,9.1,16.9,8.5C16.9,8.5,16.9,8.5,16.9,8.5z M11.3,8.5c0,1.5-1.2,2.8-2.8,2.8c-1.5,0-2.8-1.3-2.8-2.8
		C5.8,7,7,5.8,8.5,5.8l0,0c1.5,0,2.7,1.1,2.8,2.6C11.3,8.5,11.3,8.5,11.3,8.5L11.3,8.5z"/>
</g>
</svg>
